<?xml version="1.0" encoding="utf-8"?>
<!-- Generator: Adobe Illustrator 19.0.0, SVG Export Plug-In . SVG Version: 6.00 Build 0)  -->
<svg version="1.1" id="Capa_1" xmlns="http://www.w3.org/2000/svg" xmlns:xlink="http://www.w3.org/1999/xlink" x="0px" y="0px"
	 viewBox="0 0 104.7 104.7" style="enable-background:new 0 0 104.7 104.7;" xml:space="preserve">
<style type="text/css">
	.st0{fill:#26AADA;}
	.st1{clip-path:url(#XMLID_90_);}
	.st2{fill:#180900;}
	.st3{fill:#F8C1A6;}
	.st4{fill:#ECECEC;}
	.st5{fill:#E0AF97;}
	.st6{fill:#E64645;}
	.st7{fill:#422918;}
</style>
<circle id="XMLID_22_" class="st0" cx="52.3" cy="52.3" r="52.3"/>
<g id="XMLID_2_">
	<defs>
		<circle id="XMLID_3_" cx="52.3" cy="52.3" r="52.3"/>
	</defs>
	<clipPath id="XMLID_90_">
		<use xlink:href="#XMLID_3_"  style="overflow:visible;"/>
	</clipPath>
	<g id="XMLID_4_" class="st1">
		<path id="XMLID_21_" class="st2" d="M28.4,47.9c-0.3,0.4-1.2,36.8,5.2,44.3h36.2c0,0,9.9-27.9,3.2-44.3H28.2"/>
		<g id="XMLID_9_">
			<rect id="XMLID_20_" x="42.9" y="67.9" class="st3" width="20" height="13.5"/>
			<path id="XMLID_19_" class="st4" d="M47.8,77.7c3,1.2,6.3,1.9,9.6,2c1.9,0,3.8-0.2,5.6-0.5V67.9h-20v7
				C44.3,76.2,46.1,77,47.8,77.7z"/>
			<g id="XMLID_16_">
				<path id="XMLID_18_" class="st3" d="M74.6,42.5c0.1-0.5,0.9-1.3,1.3-1.6c0.8-0.6,1.7,0,1.9,0.8c0.2,0.7,0.2,1.5,0.3,2.2
					c0.1,1.8-0.1,3.6-1,5.2c-0.5,1.1-1.4,2-2.4,2.6c0,0-1.1,0.5-1.3-0.7C73.4,51.1,74.6,42.5,74.6,42.5z"/>
				<path id="XMLID_17_" class="st5" d="M74.4,43.6c0-0.4,0.7-0.9,0.9-1.1c0.6-0.4,1.2,0,1.4,0.6c0.2,0.5,0.2,1.1,0.2,1.6
					c0.1,1.3-0.1,2.5-0.7,3.7c-0.4,0.8-1,1.4-1.7,1.9c0,0-0.8,0.4-0.9-0.5C73.6,49.7,74.4,43.6,74.4,43.6z"/>
			</g>
			<g id="XMLID_13_">
				<path id="XMLID_15_" class="st3" d="M30.7,42.5c-0.1-0.5-0.9-1.3-1.3-1.6c-0.8-0.6-1.7,0-1.9,0.8c-0.2,0.7-0.2,1.5-0.3,2.2
					c-0.1,1.8,0.1,3.6,1,5.2c0.5,1.1,1.4,2,2.4,2.6c0,0,1.1,0.5,1.3-0.7C31.9,51.1,30.7,42.5,30.7,42.5z"/>
				<path id="XMLID_14_" class="st5" d="M30.9,43.6c0-0.4-0.7-0.9-0.9-1.1c-0.6-0.4-1.2,0-1.4,0.6c-0.2,0.5-0.2,1.1-0.2,1.6
					c-0.1,1.3,0.1,2.5,0.7,3.7c0.4,0.8,1,1.4,1.7,1.9c0,0,0.8,0.4,0.9-0.5C31.7,49.7,30.9,43.6,30.9,43.6z"/>
			</g>
			<path id="XMLID_12_" class="st3" d="M75.3,44.1c0,5.7-1,11.4-3.6,16.3c-2.3,4.3-5.8,7.7-9.6,10.4c-3,2.2-6.3,4.8-10.2,4.5
				c-4-0.3-7.2-3.8-10.1-6.4c-4.1-3.8-7.4-8.4-9.4-13.9c-1.2-3.4-1.8-7.2-1.8-10.9c0-18.3,10-29.8,22.4-29.8
				C65.3,14.3,75.3,25.9,75.3,44.1z"/>
			<path id="XMLID_11_" class="st3" d="M83.4,87.5L61.6,81h-8.7h-8.7l-21.8,6.5c0,0-10.1,4.3-11.2,17.9h41.7h41.7
				C93.5,91.8,83.4,87.5,83.4,87.5z"/>
			<path id="XMLID_10_" class="st6" d="M83.4,87.5l-12-3.6l-18.5,18.4L34.4,83.9l-12,3.6c0,0-10.1,4.3-11.2,17.9h41.7h41.7
				C93.5,91.8,83.4,87.5,83.4,87.5z"/>
		</g>
		<path id="XMLID_8_" class="st7" d="M37.7,21.6c0,0,10.8,17.1,37.5,20c0,0,5.1-19.4-13.7-28.9C61.5,12.7,47.1,6.8,37.7,21.6z"/>
		<path id="XMLID_7_" class="st7" d="M40.5,25.1c0,0-7,4.5-10,17c0,0-3.2-23.6,13.5-26.6L40.5,25.1z"/>
		<path id="XMLID_6_" class="st7" d="M67.8,39.6c0,0,7.2,45.6-4.2,58.5c0,0,14.5-2.1,15.2-22.1c0,0,2.6-40.7-7.2-54.7L67.8,39.6z"/>
		<path id="XMLID_5_" class="st7" d="M37.2,98.1c0,0-16.7-2-12.1-53.2c0,0,1.1-28.5,17.8-29.1l-1,10.8c0,0-9.6,2.9-8.3,25.4
			C33.6,51.9,32.6,88.2,37.2,98.1z"/>
	</g>
</g>
<g id="XMLID_74_">
</g>
<g id="XMLID_75_">
</g>
<g id="XMLID_76_">
</g>
<g id="XMLID_77_">
</g>
<g id="XMLID_78_">
</g>
<g id="XMLID_79_">
</g>
<g id="XMLID_80_">
</g>
<g id="XMLID_81_">
</g>
<g id="XMLID_82_">
</g>
<g id="XMLID_83_">
</g>
<g id="XMLID_84_">
</g>
<g id="XMLID_85_">
</g>
<g id="XMLID_86_">
</g>
<g id="XMLID_87_">
</g>
<g id="XMLID_88_">
</g>
</svg>
